<?xml version="1.0" standalone="no"?>
<!DOCTYPE svg PUBLIC "-//W3C//DTD SVG 20010904//EN"
 "http://www.w3.org/TR/2001/REC-SVG-20010904/DTD/svg10.dtd">
<svg version="1.0" xmlns="http://www.w3.org/2000/svg"
 width="1024.000000pt" height="1024.000000pt" viewBox="0 0 1024.000000 1024.000000"
 preserveAspectRatio="xMidYMid meet">

<g transform="translate(0.000000,1024.000000) scale(0.100000,-0.100000)"
fill="#000000" stroke="none">
<path d="M3767 5750 c-92 -24 -179 -98 -220 -188 -29 -65 -29 -179 0 -244 30
-66 95 -133 162 -165 80 -39 182 -39 262 0 67 32 132 99 162 165 29 65 29 179
0 244 -30 66 -104 142 -163 167 -58 25 -149 34 -203 21z"/>
<path d="M5047 5750 c-92 -24 -179 -98 -220 -188 -29 -65 -29 -179 0 -244 30
-66 95 -133 162 -165 80 -39 182 -39 262 0 67 32 132 99 162 165 29 65 29 179
0 244 -30 66 -104 142 -163 167 -58 25 -149 34 -203 21z"/>
<path d="M6327 5750 c-61 -16 -110 -45 -156 -95 -63 -68 -85 -124 -85 -215 0
-90 22 -147 84 -214 63 -68 137 -101 230 -101 62 0 85 5 131 28 67 32 132 99
162 165 29 65 29 179 0 244 -30 66 -104 142 -163 167 -58 25 -149 34 -203 21z"/>
</g>
</svg>
